<?xml version="1.0" encoding="utf-8"?>
<!-- Generator: Adobe Illustrator 19.0.0, SVG Export Plug-In . SVG Version: 6.00 Build 0)  -->
<svg version="1.1" id="layer" xmlns="http://www.w3.org/2000/svg" xmlns:xlink="http://www.w3.org/1999/xlink" x="0px" y="0px"
	 viewBox="-153 -46 652 652" style="enable-background:new -153 -46 652 652;" xml:space="preserve">
<style type="text/css">
	.st0{fill:#BDD642;}
	.st1{filter:url(#Adobe_OpacityMaskFilter);}
	.st2{fill:#FFFFFF;}
	.st3{mask:url(#mask-2_1_);fill:#ED2D2F;}
	.st4{fill:#FEFEFE;}
</style>
<path id="Fill-1" class="st0" d="M409.2,280.2c0,130.4-105.8,236.1-236.2,236c-130.3,0-236-105.8-236-236.1
	C-62.9,149.7,42.8,44,173.2,44C303.6,44.1,409.2,149.8,409.2,280.2"/>
<defs>
	<filter id="Adobe_OpacityMaskFilter" filterUnits="userSpaceOnUse" x="-76.9" y="30.1" width="500" height="500">
		<feColorMatrix  type="matrix" values="1 0 0 0 0  0 1 0 0 0  0 0 1 0 0  0 0 0 1 0"/>
	</filter>
</defs>
<mask maskUnits="userSpaceOnUse" x="-76.9" y="30.1" width="500" height="500" id="mask-2_1_">
	<g class="st1">
		<polygon id="path-1_1_" class="st2" points="-76.9,30.1 423.1,30.1 423.1,530.1 -76.9,530.1 		"/>
	</g>
</mask>
<path id="Fill-3" class="st3" d="M395.3,280.2c0,1,0,2,0,3l-67.9,0c13.1-3.3,19.8-13.9,19.8-31.5v-42.1c0-11.4-2.8-19.9-8.2-25.3
	c-4.9-4.9-12.2-7.4-21.5-7.4h-27.3h-0.6l0,106.3l-16.7,0l0.1-106.3l-17.8,0v0.3c0,0-0.1,55.6-0.1,58.6c-1.1-2.9-21.8-58.9-21.8-58.9
	h-18.1l0,106.4h-9.7l-19.8-106.4h-0.2h-23.6L142,283.2h-6.6c-2.3-7.2-15.1-46.9-15.3-47.3c5.9-2.8,12.8-9.8,12.8-27.1
	c0-22.1-9.8-31.9-31.8-32H75.3h-0.6v106.4l-17.6,0l0-53.9H25.8l0,15.6h11.7v9.7c0,10.3-2.6,14.1-9.5,14.1c-5.5,0-8-3.4-8-10.6v-54.7
	c0-7.3,2.6-11.1,7.6-11.1c6.5,0,10,3.1,10,19.5v0.6h18.7V205c0-18.1-11.1-29.7-28.2-29.7c-16.8,0-27.7,10.9-27.7,27.8v54.8
	c0,12,5,21.1,13.5,25.2l-62.9,0c0-1,0-2,0-3c0-59.4,23.1-115.1,65.1-157.1c42-41.9,97.8-65,157.1-65
	C295.7,58,395.3,157.6,395.3,280.2L395.3,280.2z M309.1,268.2V193h5.8c9.5,0,12.7,3.6,12.7,14.3v46.6c0,5.9-1,9.4-3.1,11.5
	c-1.9,1.9-4.9,2.7-9.6,2.7H309.1z M232.9,283.2v-63.4c1,2.8,19.5,55.2,22.4,63.4L232.9,283.2z M167,243.7c0.1-0.6,1.2-7.3,1.2-7.3
	s5.1-31.8,5.6-35c0.5,3.3,6.6,41.7,6.7,42.3H167z M161,283.2c0.6-4.6,3.1-22,3.1-22.4h19.2c0.1,0.4,2.5,17.8,3.2,22.4L161,283.2z
	 M94.3,224.5V193c0.5,0,6,0,6,0c9.9,0,13.1,3.8,13.1,15.8c0,11.9-3.2,15.8-13.1,15.8H94.3z M102.9,240.3c0.1,0.4,10.7,36,12.7,42.9
	l-21.2,0v-42.5C97.3,240.7,100.6,240.5,102.9,240.3L102.9,240.3z M36.7,283.1c2.7-1.5,5-3.7,7.3-6.4c0.2,0.6,1.9,4.4,2.7,6.4
	L36.7,283.1z M349.9,103.4c-47.2-47.2-110-73.2-176.8-73.3c-66.8,0-129.5,26-176.8,73.2c-47.2,47.2-73.3,110-73.3,176.8
	c0,66.8,26,129.6,73.2,176.8c47.2,47.2,109.9,73.2,176.7,73.2c66.8,0,129.6-26,176.8-73.2c47.2-47.2,73.3-110,73.3-176.8
	C423.1,213.4,397.1,150.6,349.9,103.4L349.9,103.4z"/>
<path class="st4" d="M55.3,283.1H2.7v109.5h20.4v-47.7h24.7v-18H23.1V301h33.1v-17.9H55.3z M102.5,300.1c9.8,0,12.8,3.7,12.8,15.6
	c0,12-3,15.6-12.8,15.6h-5.6v-31.2H102.5z M77.4,283.1h-0.9v109.5h20.3v-44.1c2.9,0,5.8-0.2,7.9-0.4c0.4,1.4,13.1,44.5,13.1,44.5
	h20.7c0,0-15.3-47.7-15.8-49.2c6-3,12.8-10.2,12.8-27.6c0-22.6-9.9-32.7-32.2-32.7H77.4z M187.5,307.5l6.8,44.8h-13.6L187.5,307.5z
	 M198.9,283.1h-23.7l-20.2,109.5h19.5l3.6-23.8h18.7l3.7,23.8h19.4l-20.1-109.5H198.9z M262.9,283.1h-19.4v109.5h20.3V283.1H262.9z
	 M289.9,309.8c0,17.3,11.5,26.9,21.7,35.4c8.5,7.1,15.8,13.2,15.8,22.4c0,5.7-3.6,8.9-9.8,8.9c-5.8,0-9.5-5.6-10.1-15.4l-0.1-1
	l-19.5,2.8l0,0.8c0.7,15.3,9.9,30.7,28.7,30.7c18.6,0,30.1-10.9,30.1-28.5c0-16.7-11.9-26.8-22.3-35.7c-8.2-6.9-15.2-12.9-15.2-20.6
	c0-6.2,3-9.7,8.3-9.7c2.4,0,8.1,1.1,8.9,11.1l0.1,1l19.4-2.2l-0.1-0.9c-1.8-16.6-12-26.9-26.5-26.9
	C300.6,282,289.9,292.1,289.9,309.8"/>
</svg>
